<!--
Qisutu - Open Source Ticket System
Copyright (C) 2026 Franziska Steps
Qisutu - Kim-KI, https://qisutu.de

SPDX-FileCopyrightText: 2026 Franziska Steps
SPDX-License-Identifier: AGPL-3.0-or-later
-->
<svg xmlns="http://www.w3.org/2000/svg" viewBox="0 0 110 112" role="img" aria-label="">
  <path d="M30 43c4-23 19-34 43-35-7 8-8 18-5 30Z" fill="#b93434" stroke="#8f2525" stroke-width="2"/>
  <circle cx="74" cy="10" r="7" fill="#fffaf2" stroke="#d6ddd8" stroke-width="2"/>
  <rect x="25" y="36" width="53" height="12" rx="6" fill="#fffaf2" stroke="#d6ddd8" stroke-width="2"/>
  <circle cx="52" cy="58" r="22" fill="#f2c6a0" stroke="#c18c6d" stroke-width="2"/>
  <path d="M28 59c1 29 12 42 25 42 15 0 27-15 25-43-5 8-11 11-17 9-3 8-13 8-17 0-6 2-12-1-16-8Z" fill="#fffaf2" stroke="#d6ddd8" stroke-width="2"/>
  <circle cx="44" cy="56" r="2.5" fill="#324047"/>
  <circle cx="61" cy="56" r="2.5" fill="#324047"/>
  <circle cx="53" cy="64" r="4" fill="#d98e7c"/>
  <path d="M39 79c8 5 18 5 27 0" fill="none" stroke="#c8d0cc" stroke-width="2" stroke-linecap="round"/>
  <path d="M23 104c4-15 15-23 30-23s27 8 32 23Z" fill="#b93434" stroke="#8f2525" stroke-width="2"/>
  <path d="M38 85c8 7 22 7 30 0" fill="none" stroke="#fffaf2" stroke-width="7" stroke-linecap="round"/>
</svg>
